<?xml version='1.0' encoding='utf-8'?>
<svg xmlns="http://www.w3.org/2000/svg" version="1.1" id="Layer_1" x="0px" y="0px" width="100%" viewBox="0 0 500 500" enable-background="new 0 0 500 500" xml:space="preserve" role="img" aria-labelledby="title-hatrick desc-hatrick">
<metadata>{
  "name": "HaTrick",
  "symbol": "HTRK",
  "creator": "Amer Abdalrazeq",
  "license": "All rights reserved",
  "keywords": ["HaTrick", "HTRK", "token", "BEP20", "BSC", "logo", "gold", "amber"],
  "version": "2025-10-16"
}</metadata><title id="title-hatrick">HaTrick (HTRK) Token Logo</title><desc id="desc-hatrick">Official HaTrick token mark with gold-to-amber gradient, optimized for BSC/BEP-20 upload and web rendering.</desc><defs><linearGradient id="flatGoldAmber" x1="0%" y1="0%" x2="0%" y2="100%"><stop offset="0%" stop-color="#FFD700" /><stop offset="100%" stop-color="#FFB000" /></linearGradient></defs><style type="text/css">
/* HaTrick (HTRK) token logo rendering prefs */
:root { color-interpolation-filters: sRGB; }
.hatrick-logo * {
  vector-effect: non-scaling-stroke;
  shape-rendering: geometricPrecision;
}
</style><g class="hatrick-logo">
  
<path fill="url(#flatGoldAmber)" opacity="1.000000" d=" M296.293091,376.420685   C295.014343,373.687927 293.282593,371.077362 293.276093,368.462463   C293.116577,304.348053 293.139282,240.233154 293.132202,176.118347   C293.131042,165.460312 293.276550,154.799789 293.079285,144.145523   C293.006470,140.213562 294.340240,137.548279 297.589935,135.401535   C307.446777,128.890137 317.147888,122.142189 327.038635,115.683838   C328.797089,114.535622 332.011841,113.189339 333.067627,113.963043   C334.647583,115.120872 335.608093,118.070839 335.625427,120.268059   C335.805359,143.081558 335.747375,165.896973 335.747559,188.711853   C335.747986,240.170242 335.681183,291.628815 335.840118,343.086700   C335.855804,348.158752 334.242828,351.438019 330.067352,354.254364   C320.415314,360.764709 311.054291,367.705261 301.505951,374.372070   C300.077087,375.369720 298.273895,375.831299 296.293091,376.420685  z" stroke-width="0.6" stroke-linejoin="round" stroke-linecap="round" />
<path fill="url(#flatGoldAmber)" opacity="1.000000" d=" M246.322525,193.373566   C256.334259,186.734589 265.990814,180.209427 275.821503,173.958023   C277.605438,172.823593 280.584747,171.816452 282.129517,172.567093   C283.581451,173.272614 284.486206,176.356110 284.567566,178.434982   C285.313995,197.506470 285.186127,197.418289 269.420288,207.875900   C239.737610,227.564606 210.131790,247.369186 180.494522,267.126373   C179.247131,267.957947 178.030579,268.838806 176.755951,269.625946   C172.287582,272.385376 169.303436,270.902374 169.186539,265.703888   C169.047989,259.542236 169.146927,253.375168 169.147034,247.210434   C169.147644,213.887543 169.239929,180.564148 169.056076,147.242279   C169.027618,142.083054 170.319702,138.517883 174.837555,135.596664   C184.895874,129.092957 194.558044,121.979721 204.539001,115.351860   C209.745407,111.894547 212.075226,113.306778 212.081696,119.572830   C212.112488,149.396790 212.100479,179.220779 212.103653,209.044769   C212.103851,210.849106 212.103668,212.653442 212.103668,215.981903   C224.064392,208.083908 235.045746,200.832611 246.322525,193.373566  z" stroke-width="0.6" stroke-linejoin="round" stroke-linecap="round" />
<path fill="url(#flatGoldAmber)" opacity="1.000000" d=" M186.879318,275.914825   C216.614136,255.962311 246.024628,236.172577 275.541168,216.542328   C277.526337,215.222061 280.996124,213.895859 282.536865,214.765854   C284.123657,215.661865 284.748932,219.226120 284.827026,221.654022   C285.100037,230.139603 284.828064,238.641647 285.029144,247.131134   C285.113312,250.684906 283.877228,253.002319 280.924286,254.986008   C259.237732,269.554291 237.673630,284.305145 215.954590,298.824371   C213.085495,300.742371 212.008469,302.803986 212.045853,306.161621   C212.190460,319.151093 212.011551,332.144196 212.155182,345.133667   C212.192200,348.481750 211.133255,350.720703 208.347580,352.631378   C197.779343,359.880127 187.380768,367.376434 176.798508,374.604187   C175.355225,375.589966 172.787674,376.437561 171.544815,375.794586   C170.242340,375.120789 169.258545,372.577240 169.249420,370.845032   C169.111450,344.696960 169.060516,318.546967 169.323120,292.400787   C169.346939,290.028412 171.125732,287.031525 173.026291,285.451233   C177.227325,281.958130 182.025482,279.183197 186.879318,275.914825  z" stroke-width="0.6" stroke-linejoin="round" stroke-linecap="round" />
</g></svg>